<svg width="64" height="64" viewBox="0 0 64 64" fill="none" xmlns="http://www.w3.org/2000/svg">
  <path
    d="M14.0433 48.8499C15.1472 47.9976 15.3511 46.4118 14.4987 45.3079C13.6464 44.2041 12.0606 44.0002 10.9567 44.8525C9.85286 45.7049 9.64897 47.2907 10.5013 48.3945C11.3537 49.4984 12.9395 49.7023 14.0433 48.8499Z"
    stroke="black" stroke-width="1.9962" stroke-linecap="round" stroke-linejoin="round" />
  <path
    d="M33.47 37.96C36.54 35.33 39.85 32.47 43.22 29.54C45.052 30.5544 47.1389 31.016 49.2279 30.8686C51.3169 30.7213 53.3184 29.9715 54.99 28.71C56.455 27.5294 57.5824 25.9831 58.2584 24.2272C58.9344 22.4714 59.135 20.5682 58.84 18.71C58.8083 18.4487 58.708 18.2004 58.5492 17.9904C58.3904 17.7804 58.1788 17.6163 57.9359 17.5147C57.693 17.4131 57.4276 17.3776 57.1666 17.4119C56.9056 17.4462 56.6583 17.5491 56.45 17.71L50.45 22.37C49.1321 21.875 47.962 21.0524 47.05 19.98C46.2145 18.8324 45.6877 17.4896 45.52 16.08L51.52 11.42C51.7259 11.2617 51.8868 11.0522 51.9868 10.8125C52.0868 10.5728 52.1223 10.3111 52.09 10.0534C52.0577 9.79568 51.9585 9.5509 51.8024 9.34332C51.6463 9.13574 51.4386 8.97258 51.2 8.87001C49.4638 8.11527 47.5582 7.83514 45.6783 8.05828C43.7983 8.28142 42.0113 8.99981 40.5 10.14C38.8756 11.4575 37.6674 13.2172 37.0215 15.2065C36.3756 17.1958 36.3195 19.3295 36.86 21.35L33.8 23.51"
    stroke="black" stroke-width="2" stroke-linecap="round" stroke-linejoin="round" />
  <path
    d="M20.2 33.08C13.81 37.63 9.31001 40.9 8.59001 41.46C7.89663 41.9998 7.31635 42.6708 6.8823 43.4348C6.44825 44.1988 6.16892 45.0408 6.06028 45.9127C5.84086 47.6737 6.32997 49.4497 7.42001 50.85C8.51005 52.2504 10.1117 53.1603 11.8727 53.3797C13.6337 53.5992 15.4097 53.1101 16.81 52.02C17.3 51.64 19.39 49.9 22.53 47.26"
    stroke="black" stroke-width="2" stroke-linecap="round" stroke-linejoin="round" />
  <path
    d="M27.2201 45.5H28.5001C28.5001 45.5 30.3201 28.4 30.3201 18.22C29.3556 17.7204 28.295 17.4339 27.2101 17.38C26.1252 17.4339 25.0646 17.7204 24.1001 18.22C24.1001 28.4 25.9201 45.5 25.9201 45.5H27.2201Z"
    stroke="black" stroke-width="2" stroke-linecap="round" stroke-linejoin="round" />
  <path
    d="M26.66 44.05C26.27 39.93 25.05 27.91 24.96 19.32C25.6732 19.0177 26.4358 18.8482 27.21 18.82C27.9842 18.8482 28.7467 19.0177 29.46 19.32C29.36 27.9 28.15 39.93 27.77 44.04L26.66 44.05Z"
    stroke="black" stroke-width="2" stroke-linecap="round" stroke-linejoin="round" />
  <path
    d="M27.2201 44.79C26.7501 39.37 25.9901 27.39 25.8301 20.49C26.7287 20.1882 27.7014 20.1882 28.6001 20.49C28.4501 27.4 27.6901 39.37 27.2201 44.79Z"
    stroke="black" stroke-width="2" stroke-linecap="round" stroke-linejoin="round" />
  <path
    d="M27.22 37.24C27 33.46 26.81 24.85 26.72 21.76C27.0514 21.7092 27.3886 21.7092 27.72 21.76C27.63 24.85 27.44 33.45 27.22 37.24Z"
    stroke="black" stroke-width="2" stroke-linecap="round" stroke-linejoin="round" />
  <path
    d="M27.22 56.42C28.6946 56.42 29.89 55.2246 29.89 53.75C29.89 52.2754 28.6946 51.08 27.22 51.08C25.7454 51.08 24.55 52.2754 24.55 53.75C24.55 55.2246 25.7454 56.42 27.22 56.42Z"
    stroke="black" stroke-width="2" stroke-linecap="round" stroke-linejoin="round" />
  <path
    d="M27.2201 55.13C27.9822 55.13 28.6001 54.5122 28.6001 53.75C28.6001 52.9879 27.9822 52.37 27.2201 52.37C26.4579 52.37 25.8401 52.9879 25.8401 53.75C25.8401 54.5122 26.4579 55.13 27.2201 55.13Z"
    stroke="black" stroke-width="2" stroke-linecap="round" stroke-linejoin="round" />
  <path
    d="M27 55C27.5523 55 28 54.5523 28 54C28 53.4477 27.5523 53 27 53C26.4477 53 26 53.4477 26 54C26 54.5523 26.4477 55 27 55Z"
    stroke="black" stroke-width="2" stroke-linecap="round" stroke-linejoin="round" />
</svg>