<svg width="127" height="124" viewBox="0 0 127 124" fill="none" xmlns="http://www.w3.org/2000/svg">
  <path
    d="M24.2841 81.4921C18.825 85.159 13.5259 97.8438 12.571 105.761C12.2133 108.727 11.9744 112.375 12.1235 113.344"
    stroke="black" stroke-width="2" stroke-linecap="round" stroke-linejoin="round" />
  <path d="M38.3573 84.0482C40.2213 89.1254 39.408 100.469 38.3547 110.438" stroke="black" stroke-width="1.5"
    stroke-linecap="round" stroke-linejoin="round" />
  <path
    d="M46.2566 76.0126C47.8366 78.071 43.6228 84.0077 41.341 85.6056C39.0592 87.2036 24.5847 84.8184 22.0559 81.425C19.5271 78.0317 19.4293 70.4977 22.5185 69.3443C24.1478 68.7362 27.967 72.9041 27.4692 75.3027C27.9278 73.615 32.324 66.0899 35.7869 66.9447C39.25 67.7994 39.0028 74.9424 38.505 77.341C40.0264 76.2757 44.6764 73.954 46.2566 76.0126Z"
    fill="black" stroke="black" stroke-width="1.5" stroke-linecap="round" stroke-linejoin="round" />
  <path
    d="M110.011 108.865C107.562 91.7813 103.372 81.0254 98.8686 61.4143C96.2216 49.8869 97.5451 31.9557 92.2511 24.2708C87.5503 17.4471 80.3397 12.7434 64.4576 12.7437C49.8392 12.7439 42.9136 17.5972 37.9877 24.2708C31.3702 33.2366 30.7378 53.7294 29.4142 61.4143C29.2709 62.2478 29.0616 63.2388 28.8076 64.3296"
    stroke="black" stroke-width="2" stroke-linecap="round" stroke-linejoin="round" />
  <path
    d="M63.4126 28.1132C45.8158 28.1132 40.0573 34.5172 38.6465 45.8237C37.2356 57.1299 43.3639 63.9757 63.4126 63.9757C83.4612 63.9757 91.9252 57.9693 90.5372 45.8237C89.1491 33.678 84.6406 28.1132 63.4126 28.1132Z"
    fill="black" stroke="black" stroke-width="1.5" />
  <path
    d="M56.9922 39.9495C56.9922 38.8796 56.1248 38.012 55.0547 38.012C53.9846 38.012 53.1172 38.8796 53.1172 39.9495H56.9922ZM53.1172 47.3275C53.1172 48.3975 53.9846 49.265 55.0547 49.265C56.1248 49.265 56.9922 48.3975 56.9922 47.3275H53.1172ZM53.1172 39.9495V47.3275H56.9922V39.9495H53.1172Z"
    fill="white" />
  <path
    d="M75.438 39.9495C75.438 38.8796 74.5706 38.012 73.5005 38.012C72.4304 38.012 71.563 38.8796 71.563 39.9495H75.438ZM71.563 47.3275C71.563 48.3975 72.4304 49.265 73.5005 49.265C74.5706 49.265 75.438 48.3975 75.438 47.3275H71.563ZM71.563 39.9495V47.3275H75.438V39.9495H71.563Z"
    fill="white" />
  <path
    d="M100.65 73.1501C94.2747 75.5102 90.7616 81.842 88.9402 93.6431C88.1133 98.9995 87.3576 105.253 86.7793 111.884"
    stroke="black" stroke-width="1.5" stroke-linecap="round" />
  <path d="M86.3166 16.5861C79.9126 21.7093 78.6317 26.8324 77.3508 30.6749" stroke="black" stroke-width="1.5" />
  <path d="M44.0474 16.5861C50.4514 21.7093 51.7323 26.8324 53.0129 30.6749" stroke="black" stroke-width="1.5" />
</svg>